REM MD5 42fc5d3affbf0567cc32e83286034dcb
FILE "PlayStation Underground 3.1 (USA) (Disc 2).bin" BINARY
  TRACK 01 MODE2/2352
    INDEX 01 00:00:00
  TRACK 02 AUDIO
    INDEX 00 63:23:30
    INDEX 01 63:25:30
  TRACK 03 AUDIO
    INDEX 00 64:06:33
    INDEX 01 64:08:33
  TRACK 04 AUDIO
    INDEX 00 64:15:67
    INDEX 01 64:17:67
  TRACK 05 AUDIO
    INDEX 00 64:25:32
    INDEX 01 64:27:32
  TRACK 06 AUDIO
    INDEX 00 67:32:65
    INDEX 01 67:34:65
REM LEADOUT 67:40:61
